<svg xmlns="http://www.w3.org/2000/svg" version="1.1" xmlns:xlink="http://www.w3.org/1999/xlink" width="1000" height="1000"><svg width="1000" height="1000" viewBox="0 0 55 55" fill="none" xmlns="http://www.w3.org/2000/svg">
  <!-- Background bulat putih -->
  <circle cx="27.5" cy="27.5" r="27.5" fill="white"></circle>
  <g filter="url(#filter0_i_146_227)" transform="translate(14 6) scale(0.8)">
    <path d="M8.1632 22.6776C8.40401 22.2911 10.5211 20.7651 11.6248 19.9901C10.4409 25.8482 8.0428 37.7094 7.9224 38.2892C7.80199 38.869 7.53109 39.4165 7.41068 39.6178L0.509275 49.6733C0.158098 50.247 -0.195085 51.7206 1.2016 53.0251C2.59828 54.3296 4.29195 53.5686 4.96421 53.0251C6.85053 50.4785 11.2877 44.0326 11.7452 43.4528C12.2028 42.873 12.5379 42.3053 12.6482 42.094L15.5981 34.0919C17.0931 36.3063 20.2156 40.9163 20.7454 41.641C21.2752 42.3657 21.5079 43.171 21.5581 43.483C22.378 46.677 23.1222 49.8901 24.1468 53.0251C24.6685 53.5787 26.0853 54.5651 27.5783 54.082C29.0713 53.5988 29.4445 51.8676 29.4445 51.0623C28.7322 48.244 27.2713 42.414 27.1268 41.641C26.9823 40.868 26.5448 39.7286 26.3441 39.2555C24.6384 36.5277 21.1909 31.0239 21.0464 30.8306C20.9019 30.6374 20.9862 30.2267 21.0464 30.0455L22.8223 22.134C23.0431 22.6575 23.5508 23.9096 23.8157 24.7309C24.0806 25.5523 24.4139 26.596 24.6848 26.8779C27.0515 28.2854 29.2287 29.7757 31.998 31.0138C32.5097 31.2426 34.1017 31.1172 34.7003 29.9444C35.2989 28.7716 34.9831 27.4085 34.351 27.0259C32.6051 25.969 29.0171 23.7949 28.6318 23.5533C28.2465 23.3117 28.0612 22.9695 27.9709 22.8286C27.3688 21.5402 25.93 18.4138 24.9909 16.2155C24.0517 14.0172 21.839 12.9845 20.8959 12.7429C20.2537 12.6926 18.3554 12.5678 15.8991 12.4712C13.4429 12.3745 12.0262 12.9946 11.6248 13.3167C9.83885 14.8567 6.02004 18.124 5.03273 18.8728C4.04542 19.6217 3.55779 20.8759 3.43739 21.4093L2.26346 28.4753C1.97449 30.1663 3.32703 30.9313 4.03942 31.1024C5.65282 31.4406 6.43746 30.2368 6.62809 29.5926C6.62809 29.5926 7.67143 24.2478 7.74179 23.7043C7.81216 23.1607 7.9224 23.0641 8.1632 22.6776Z" fill="#212121"></path>
    <path d="M24.5983 5.64675C24.5983 8.76536 22.0781 11.2935 18.9694 11.2935C15.8607 11.2935 13.3405 8.76536 13.3405 5.64675C13.3405 2.52814 15.8607 0 18.9694 0C22.0781 0 24.5983 2.52814 24.5983 5.64675Z" fill="#212121"></path>
  </g>
  <defs>
    <filter id="SvgjsFilter1025" x="0.193604" y="0" width="34.9175" height="54.3029" filterUnits="userSpaceOnUse" color-interpolation-filters="sRGB">
      <feFlood flood-opacity="0" result="BackgroundImageFix"></feFlood>
      <feBlend mode="normal" in="SourceGraphic" in2="BackgroundImageFix" result="shape"></feBlend>
      <feColorMatrix in="SourceAlpha" type="matrix" values="0 0 0 0 0 0 0 0 0 0 0 0 0 0 0 0 0 0 127 0" result="hardAlpha"></feColorMatrix>
      <feOffset dx="0.0915731" dy="0.0915731"></feOffset>
      <feGaussianBlur stdDeviation="0.457866"></feGaussianBlur>
      <feComposite in2="hardAlpha" operator="arithmetic" k2="-1" k3="1"></feComposite>
      <feColorMatrix type="matrix" values="0 0 0 0 0 0 0 0 0 0 0 0 0 0 0 0 0 0 0.15 0"></feColorMatrix>
      <feBlend mode="normal" in2="shape" result="effect1_innerShadow_146_227"></feBlend>
    </filter>
  </defs>
</svg><style>@media (prefers-color-scheme: light) { :root { filter: none; } }
@media (prefers-color-scheme: dark) { :root { filter: none; } }
</style></svg>