<svg width="25" height="24" viewBox="0 0 25 24" fill="none" xmlns="http://www.w3.org/2000/svg">
<path d="M21.0197 12.6473L21.5373 10.7154C22.1416 8.46034 22.4437 7.3328 22.2162 6.35703C22.0365 5.58657 21.6324 4.88668 21.055 4.34587C20.3237 3.66095 19.1962 3.35883 16.9411 2.75458C14.686 2.15033 13.5585 1.84821 12.5827 2.07573C11.8123 2.25537 11.1124 2.65945 10.5716 3.23687C9.98516 3.86298 9.67935 4.77957 9.22428 6.44561C9.14785 6.7254 9.06722 7.02633 8.98034 7.35057L8.98029 7.35077L8.46265 9.28263C7.8584 11.5377 7.55628 12.6652 7.7838 13.641C7.96344 14.4115 8.36752 15.1114 8.94494 15.6522C9.67622 16.3371 10.8038 16.6392 13.0588 17.2435L13.0588 17.2435C15.0914 17.7881 16.208 18.0873 17.1231 17.9744C17.2232 17.9621 17.321 17.9448 17.4172 17.9223C18.1877 17.7427 18.8876 17.3386 19.4284 16.7612C20.1133 16.0299 20.4154 14.9024 21.0197 12.6473Z" fill="#212121"/>
<path d="M3.46265 14.715L3.98029 16.6469C4.58453 18.902 4.88666 20.0295 5.57158 20.7608C6.11239 21.3382 6.81227 21.7423 7.58273 21.9219C8.55851 22.1494 9.68605 21.8473 11.9411 21.2431C14.1962 20.6388 15.3237 20.3367 16.055 19.6518C16.1157 19.5949 16.1745 19.5363 16.2313 19.4761C15.8971 19.448 15.5601 19.3942 15.2175 19.3261C14.5214 19.1877 13.6943 18.9661 12.7161 18.704L12.6093 18.6753L12.5845 18.6687C11.5201 18.3835 10.6309 18.1448 9.92084 17.8883C9.17414 17.6185 8.49567 17.286 7.91955 16.7464C7.1256 16.0028 6.56999 15.0404 6.32298 13.9811C6.14374 13.2123 6.19498 12.4585 6.33473 11.6769C6.46865 10.928 6.70916 10.0305 6.99732 8.95515L6.99733 8.95514L7.53172 6.96077L7.55051 6.89062C5.62997 7.40799 4.61908 7.71408 3.94494 8.34548C3.36752 8.88629 2.96344 9.58617 2.7838 10.3566C2.55628 11.3324 2.8584 12.4599 3.46265 14.715Z" fill="#212121"/>
</svg>
