<svg width="21" height="32" viewBox="0 0 21 32" fill="none" xmlns="http://www.w3.org/2000/svg">
<g filter="url(#filter0_i_133_1120)">
<path d="M4.66064 13.4105C4.80146 13.1844 6.03956 12.2921 6.68501 11.8388C5.99261 15.2646 4.59022 22.2011 4.51981 22.5401C4.4494 22.8792 4.29097 23.1994 4.22056 23.3171L0.184605 29.1976C-0.0207635 29.5331 -0.227306 30.3949 0.589476 31.1577C1.40626 31.9206 2.39672 31.4756 2.78986 31.1577C3.89298 29.6685 6.48785 25.8989 6.75541 25.5598C7.02298 25.2208 7.21895 24.8888 7.2835 24.7652L9.0086 20.0855C9.88288 21.3805 11.7089 24.0765 12.0187 24.5003C12.3285 24.9241 12.4647 25.395 12.494 25.5775C12.9735 27.4454 13.4087 29.3244 14.0079 31.1577C14.313 31.4815 15.1415 32.0583 16.0146 31.7758C16.8877 31.4932 17.106 30.4808 17.106 30.0099C16.6894 28.3617 15.8351 24.9524 15.7506 24.5003C15.6661 24.0482 15.4102 23.3819 15.2929 23.1052C14.2954 21.51 12.2792 18.2914 12.1947 18.1784C12.1103 18.0654 12.1595 17.8252 12.1947 17.7192L13.2333 13.0926C13.3624 13.3987 13.6593 14.1309 13.8142 14.6113C13.9691 15.0916 14.1641 15.702 14.3225 15.8668C15.7066 16.6899 16.9798 17.5615 18.5993 18.2855C18.8985 18.4193 19.8295 18.3459 20.1796 17.6601C20.5296 16.9743 20.3449 16.1771 19.9753 15.9533C18.9543 15.3353 16.856 14.0638 16.6307 13.9226C16.4054 13.7813 16.297 13.5812 16.2442 13.4987C15.8921 12.7453 15.0507 10.917 14.5015 9.63143C13.9523 8.34586 12.6583 7.74192 12.1067 7.60065C11.7312 7.57122 10.621 7.49823 9.18463 7.44172C7.74822 7.38521 6.91971 7.74781 6.68501 7.93617C5.64056 8.83678 3.40731 10.7475 2.82993 11.1854C2.25255 11.6234 1.96738 12.3568 1.89697 12.6688L1.21046 16.801C1.04147 17.7899 1.83243 18.2372 2.24904 18.3373C3.19256 18.5351 3.65142 17.8311 3.7629 17.4544C3.7629 17.4544 4.37304 14.3287 4.41419 14.0109C4.45534 13.693 4.51981 13.6365 4.66064 13.4105Z" fill="#212121"/>
<path d="M14.2719 3.45079C14.2719 5.27456 12.7981 6.75302 10.9801 6.75302C9.16213 6.75302 7.68835 5.27456 7.68835 3.45079C7.68835 1.62702 9.16213 0.14856 10.9801 0.14856C12.7981 0.14856 14.2719 1.62702 14.2719 3.45079Z" fill="#212121"/>
</g>
<defs>
<filter id="filter0_i_133_1120" x="0" y="0.14856" width="20.4198" height="31.7564" filterUnits="userSpaceOnUse" color-interpolation-filters="sRGB">
<feFlood flood-opacity="0" result="BackgroundImageFix"/>
<feBlend mode="normal" in="SourceGraphic" in2="BackgroundImageFix" result="shape"/>
<feColorMatrix in="SourceAlpha" type="matrix" values="0 0 0 0 0 0 0 0 0 0 0 0 0 0 0 0 0 0 127 0" result="hardAlpha"/>
<feOffset dx="0.0535521" dy="0.0535521"/>
<feGaussianBlur stdDeviation="0.267761"/>
<feComposite in2="hardAlpha" operator="arithmetic" k2="-1" k3="1"/>
<feColorMatrix type="matrix" values="0 0 0 0 0 0 0 0 0 0 0 0 0 0 0 0 0 0 0.15 0"/>
<feBlend mode="normal" in2="shape" result="effect1_innerShadow_133_1120"/>
</filter>
</defs>
</svg>
